<?xml version="1.0" encoding="utf-8"?>
<svg xmlns="http://www.w3.org/2000/svg">
    <symbol id='icLogo' viewBox="0 0 50 50"><path fill="currentColor" d="M 10.300781 12 C 7.890625 12 6 13.933594 6 16.402344 C 6 17.3125 6.261719 17.875 6.515625 18.308594 L 6.59375 18.46875 L 6.699219 18.597656 C 6.75 18.667969 6.851563 18.8125 6.984375 19 L 0 19 L 0 26.125 L 0.503906 27.632813 L 3.503906 36.632813 L 3.957031 38 L 8.523438 38 L 8.992188 36.652344 L 9 36.625 L 9.007813 36.652344 L 9.476563 38 L 19.421875 38 L 19.890625 36.660156 L 20.121094 36 L 21.078125 36 L 21.3125 36.660156 L 21.78125 38 L 33 38 L 33 37.453125 C 33.382813 37.710938 33.996094 38 34.800781 38 L 43.097656 38 C 45.609375 38 47.5 36.109375 47.5 33.597656 C 47.5 32.6875 47.238281 32.125 46.984375 31.691406 L 46.890625 31.503906 L 46.761719 31.347656 L 46.480469 31 L 49 31 L 49 19 L 45.265625 19 C 45.609375 18.335938 45.800781 17.585938 45.800781 16.800781 C 45.800781 14.152344 43.648438 12 41 12 L 33 12 L 33 15.117188 L 32.390625 13.347656 L 31.925781 12 Z M 10.300781 14 L 24 14 L 24 16 L 20 16 L 20 23 L 17 23 L 17 16 L 11.597656 16 C 11.199219 16 10.902344 16.300781 10.902344 16.699219 C 10.902344 16.800781 11 16.898438 11 17 L 12.902344 19.597656 C 13 19.800781 13.199219 20 13.199219 20.597656 C 13.199219 22 12.101563 23 10.800781 23 L 2 23 L 2 21 L 9.601563 21 C 10 21 10.300781 20.699219 10.199219 20.300781 C 10.199219 20.199219 10.097656 20.101563 10.097656 20 C 10.097656 20 8.601563 17.800781 8.300781 17.402344 C 8.199219 17.199219 8 17 8 16.402344 C 8 15 9 14 10.300781 14 Z M 26.300781 14 L 30.5 14 L 33.597656 23 L 31.097656 23 L 30.402344 21 L 26.597656 21 L 25.902344 23 L 23.402344 23 Z M 35 14 L 41 14 C 42.5 14 43.800781 15.199219 43.800781 16.800781 C 43.800781 18.101563 42.898438 19.199219 41.699219 19.5 C 41.699219 19.5 42.300781 20 42.800781 20.597656 C 43 20.800781 43.199219 21 43.597656 21 L 47 21 L 47 23 L 41.800781 23 C 41.402344 23 41.101563 22.800781 41 22.699219 C 40.222656 22 38.660156 20.515625 38 19.890625 C 38 20.875 38 23 38 23 L 35 23 Z M 28.402344 15.402344 L 27.199219 19 L 29.597656 19 Z M 38 16 L 38 18 L 40.300781 18 C 40.902344 18 41.402344 17.601563 41.402344 17 C 41.402344 16.398438 40.902344 16 40.300781 16 Z M 14.207031 18 L 15 18 L 15 19.351563 C 14.910156 19.09375 14.796875 18.882813 14.6875 18.691406 L 14.609375 18.546875 L 14.515625 18.421875 Z M 22 18 L 22.910156 18 L 22 20.824219 Z M 15 21.9375 L 15 25 L 10.800781 25 C 12.796875 25 14.445313 23.730469 15 21.9375 Z M 28.019531 23 L 28.980469 23 L 29.214844 23.660156 L 29.683594 25 L 27.316406 25 L 27.785156 23.660156 Z M 40 24.449219 C 40.382813 24.707031 40.992188 25 41.800781 25 L 42.300781 25 C 40.558594 25 39.050781 26.039063 38.339844 27.546875 C 37.527344 26.03125 35.933594 25 34.097656 25 L 40 25 Z M 24.140625 25 L 26 25 L 26 30.574219 L 24.597656 26.367188 Z M 2.398438 27 L 4.898438 27 L 6.199219 30.902344 L 7.601563 27 L 10.402344 27 L 11.699219 30.902344 L 13 27 L 15.597656 27 L 12.597656 36 L 10.902344 36 L 9 30.5 L 7.101563 36 L 5.398438 36 Z M 18.5 27 L 22.699219 27 L 25.699219 36 L 23.199219 36 L 22.5 34 L 18.699219 34 L 18 36 L 15.597656 36 Z M 28 27 L 34.097656 27 C 35.597656 27 36.902344 28.199219 36.902344 29.800781 C 36.902344 31.101563 36 32.199219 34.800781 32.5 C 34.800781 32.5 35.300781 33 35.800781 33.597656 C 36 33.800781 36.199219 34 36.597656 34 L 41.902344 34 C 42.199219 34 42.5 33.699219 42.5 33.300781 C 42.5 33.199219 42.402344 33.101563 42.402344 33 C 42.402344 33 40.5 30.800781 40.199219 30.5 C 40.097656 30.300781 39.902344 30.101563 39.902344 29.5 C 39.902344 28.101563 41 27 42.300781 27 L 47 27 L 47 29 L 43.699219 29 C 43.398438 29 43.097656 29.402344 43.097656 29.800781 C 43.097656 29.902344 43.199219 30 43.199219 30.097656 L 45.199219 32.597656 C 45.300781 32.800781 45.5 33 45.5 33.597656 C 45.5 35.097656 44.398438 36 43.097656 36 L 34.800781 36 C 34.402344 36 34.101563 35.800781 34 35.699219 C 33.222656 35 31.65625 33.507813 31 32.886719 L 31 36 L 28 36 Z M 20.597656 28.402344 L 19.402344 32 L 21.800781 32 Z M 31 29 L 31 31 L 33.300781 31 C 33.902344 31 34.402344 30.601563 34.402344 30 C 34.402344 29.398438 33.902344 29 33.300781 29 Z M 38.53125 31.640625 L 38.5625 31.699219 L 38.785156 31.914063 C 38.804688 31.933594 38.832031 31.960938 38.863281 32 L 38.367188 32 C 38.425781 31.882813 38.484375 31.761719 38.53125 31.640625 Z"/></symbol>
    <symbol id='icNoResult' viewBox="0 0 48 48"><path fill="currentColor" d="M 8.8769531 7.1992188 C 6.0087153 7.3562372 3.5 9.6740179 3.5 12.738281 C 3.5 13.008281 3.5058594 13.039081 3.5058594 12.794922 A 1.50015 1.50015 0 0 0 3.5058594 12.818359 C 3.5278844 14.216631 3.9842518 15.48454 4.3691406 16.628906 C 4.7540295 17.773272 5.0560744 18.811678 5.0585938 19.328125 C 5.0613437 20.073788 4.4011525 22.099746 3.9667969 23.121094 C 3.5982784 23.988503 3.59846 24.979239 3.9648438 25.845703 A 1.50015 1.50015 0 0 0 3.9648438 25.847656 C 4.3993528 26.87125 5.0619799 28.905953 5.0585938 29.654297 C 5.0560738 30.175594 4.7485292 31.220257 4.359375 32.378906 C 4.0257401 33.372255 3.7329791 34.511419 3.6230469 35.701172 C 3.6131069 35.727222 3.5723301 35.771952 3.5644531 35.794922 C 3.4672151 36.078445 3.4805186 36.196589 3.4785156 36.296875 C 3.4745056 36.497448 3.4925645 36.59415 3.5078125 36.701172 C 3.5383085 36.915216 3.5802015 37.114539 3.6269531 37.320312 C 3.6737041 37.526088 3.7252851 37.727639 3.7695312 37.894531 C 3.8137782 38.061423 3.7570632 37.988381 3.9160156 38.373047 C 4.1950635 39.050748 4.606943 39.661631 5.1210938 40.175781 C 6.4512161 41.505904 8.3359801 42.029346 10.121094 41.730469 A 1.50015 1.50015 0 0 0 10.167969 41.720703 C 12.413144 41.332485 14.622669 40.280224 16.285156 40.273438 C 18.448989 40.267038 20.600379 40.658704 22.767578 41.462891 A 1.5001682 1.5001682 0 1 0 23.8125 38.650391 C 21.333699 37.730577 18.811511 37.265885 16.277344 37.273438 A 1.50015 1.50015 0 0 0 16.275391 37.273438 C 13.576065 37.283338 11.146334 38.507971 9.65625 38.765625 A 1.50015 1.50015 0 0 0 9.625 38.771484 C 9.625 38.771484 9.6230469 38.771484 9.6230469 38.771484 C 8.780643 38.911799 7.809639 38.622138 7.2421875 38.054688 C 7.0251735 37.837673 6.8513091 37.575858 6.7265625 37.298828 C 6.7070733 37.244022 6.6816722 37.176688 6.6679688 37.125 C 6.6329028 36.992736 6.5897338 36.8191 6.5527344 36.65625 C 6.5250864 36.534556 6.5097828 36.44911 6.4960938 36.373047 C 6.4960938 36.373047 6.4960938 36.371094 6.4960938 36.371094 A 1.50015 1.50015 0 0 0 6.5 36.277344 C 6.50537 35.556315 6.8195292 34.476085 7.203125 33.333984 C 7.5867208 32.191884 8.0521161 31.006672 8.0585938 29.667969 C 8.0672037 27.765326 7.2161349 25.826372 6.7285156 24.677734 C 6.6728966 24.546199 6.6730346 24.425513 6.7285156 24.294922 L 6.7265625 24.294922 C 7.2139973 23.148756 8.067216 21.213701 8.0585938 19.3125 C 8.0521129 17.983947 7.5940018 16.806962 7.2128906 15.673828 C 6.8317795 14.540694 6.514881 13.468212 6.5039062 12.771484 C 6.5024831 12.736043 6.5 12.603258 6.5 12.738281 C 6.5 11.097689 8.0062003 9.9585779 9.6230469 10.226562 A 1.50015 1.50015 0 0 0 9.65625 10.234375 C 11.146422 10.492044 13.576831 11.71666 16.275391 11.726562 A 1.50015 1.50015 0 1 0 16.287109 8.7265625 C 14.625669 8.7204625 12.413797 7.6656748 10.167969 7.2773438 A 1.50015 1.50015 0 0 0 10.121094 7.2675781 C 9.7028945 7.1976536 9.2867014 7.1767875 8.8769531 7.1992188 z M 10.167969 7.2773438 L 10.25 7.2949219 C 10.2534 7.2957116 10.240398 7.2919463 10.210938 7.2851562 A 1.50015 1.50015 0 0 0 10.167969 7.2773438 z M 38.503906 7.2011719 C 38.296486 7.2124912 38.088459 7.2344512 37.878906 7.2695312 A 1.50015 1.50015 0 0 0 37.832031 7.2792969 C 35.586115 7.6676432 33.375565 8.7204637 31.712891 8.7265625 C 29.549058 8.7330125 27.397668 8.3412961 25.230469 7.5371094 A 1.50015 1.50015 0 1 0 24.1875 10.349609 C 26.666301 11.269423 29.188489 11.734114 31.722656 11.726562 C 34.421981 11.716662 36.851713 10.492029 38.341797 10.234375 A 1.50015 1.50015 0 0 0 38.373047 10.228516 L 38.375 10.228516 C 39.976673 9.9615808 41.423201 11.108154 41.494141 12.726562 C 41.494116 12.746597 41.494144 12.74283 41.494141 12.773438 C 41.482491 13.469924 41.166092 14.542804 40.785156 15.675781 C 40.404221 16.808759 39.947886 17.986724 39.941406 19.314453 C 39.932206 21.169486 40.410732 22.742822 41.230469 24.357422 C 41.287039 24.468629 41.293935 24.614248 41.234375 24.755859 C 40.744642 25.92043 39.930842 27.809336 39.939453 29.667969 C 39.945253 31.007319 40.4112 32.190834 40.794922 33.330078 C 41.178158 34.46788 41.490686 35.541183 41.496094 36.242188 C 41.495542 37.901994 39.982018 39.041278 38.376953 38.773438 A 1.50015 1.50015 0 0 0 38.34375 38.765625 C 36.852589 38.507908 34.423171 37.28334 31.724609 37.273438 A 1.50015 1.50015 0 1 0 31.712891 40.273438 C 33.371433 40.279538 35.577516 41.330771 37.820312 41.720703 A 1.50015 1.50015 0 0 0 37.826172 41.720703 C 37.828172 41.721057 37.829931 41.722256 37.832031 41.722656 A 1.50015 1.50015 0 0 0 37.878906 41.730469 C 41.223769 42.291098 44.500167 39.749651 44.496094 36.234375 A 1.50015 1.50015 0 0 0 44.496094 36.226562 C 44.486694 34.809506 44.025497 33.527302 43.636719 32.373047 C 43.247941 31.218791 42.941692 30.174946 42.939453 29.654297 C 42.936053 28.92293 43.563733 26.957352 44 25.919922 C 44.390444 24.991533 44.373723 23.92084 43.904297 22.998047 C 43.208034 21.626647 42.934573 20.711092 42.941406 19.328125 C 42.943906 18.811854 43.244342 17.774632 43.628906 16.630859 C 44.013471 15.487087 44.470788 14.220733 44.494141 12.824219 A 1.50015 1.50015 0 0 0 44.494141 12.798828 C 44.494141 13.050538 44.503747 12.90715 44.498047 12.685547 C 44.408056 9.472356 41.615216 7.031382 38.503906 7.2011719 z M 17.5 18 A 2.5 2.5 0 0 0 17.5 23 A 2.5 2.5 0 0 0 17.5 18 z M 30.5 18 A 2.5 2.5 0 0 0 30.5 23 A 2.5 2.5 0 0 0 30.5 18 z M 24 26 C 18.4 26 15.347656 29.539062 15.347656 29.539062 A 1.5004328 1.5004328 0 1 0 17.652344 31.460938 C 17.652344 31.460937 19.6 29 24 29 C 28.4 29 30.347656 31.460938 30.347656 31.460938 A 1.5004328 1.5004328 0 1 0 32.652344 29.539062 C 32.652344 29.539063 29.6 26 24 26 z"/></symbol>
</svg>
